<svg width="19" height="18" viewBox="0 0 19 18" fill="none" xmlns="http://www.w3.org/2000/svg">
<path d="M6.5875 8.86376C6.5875 7.25155 7.89371 5.94426 9.50545 5.94426C11.1172 5.94426 12.4241 7.25155 12.4241 8.86376C12.4241 10.476 11.1172 11.7833 9.50545 11.7833C7.89371 11.7833 6.5875 10.476 6.5875 8.86376ZM5.00973 8.86376C5.00973 11.3475 7.02246 13.3608 9.50545 13.3608C11.9884 13.3608 14.0012 11.3475 14.0012 8.86376C14.0012 6.38004 11.9884 4.36673 9.50545 4.36673C7.02246 4.36673 5.00973 6.38004 5.00973 8.86376ZM13.1285 4.18842C13.1284 4.39628 13.19 4.59949 13.3054 4.77236C13.4207 4.94523 13.5848 5.08 13.7767 5.15962C13.9687 5.23924 14.1799 5.26014 14.3837 5.21967C14.5875 5.1792 14.7748 5.07918 14.9218 4.93226C15.0688 4.78535 15.1689 4.59813 15.2095 4.39428C15.2501 4.19044 15.2294 3.97912 15.15 3.78706C15.0705 3.59499 14.9359 3.4308 14.7632 3.31525C14.5905 3.19971 14.3874 3.13799 14.1796 3.13791H14.1792C13.9006 3.13804 13.6335 3.24874 13.4365 3.44571C13.2395 3.64268 13.1288 3.90981 13.1285 4.18842ZM5.96832 15.9924C5.11472 15.9535 4.65076 15.8113 4.34244 15.6911C3.93367 15.5319 3.64201 15.3424 3.33537 15.036C3.02872 14.7297 2.83891 14.4383 2.68047 14.0294C2.56028 13.7211 2.4181 13.2569 2.37929 12.403C2.33685 11.4799 2.32837 11.2026 2.32837 8.86383C2.32837 6.52507 2.33755 6.24854 2.37929 5.32462C2.41817 4.47077 2.5614 4.00745 2.68047 3.69827C2.83961 3.28938 3.02914 2.99764 3.33537 2.69091C3.64159 2.38418 3.93297 2.19431 4.34244 2.03583C4.65062 1.9156 5.11472 1.77337 5.96832 1.73456C6.8912 1.6921 7.16843 1.68362 9.50545 1.68362C11.8425 1.68362 12.12 1.6928 13.0436 1.73456C13.8972 1.77344 14.3604 1.91672 14.6695 2.03583C15.0783 2.19431 15.3699 2.3846 15.6766 2.69091C15.9832 2.99722 16.1723 3.28938 16.3315 3.69827C16.4517 4.00654 16.5939 4.47077 16.6327 5.32462C16.6751 6.24854 16.6836 6.52507 16.6836 8.86383C16.6836 11.2026 16.6751 11.4791 16.6327 12.403C16.5938 13.2569 16.4509 13.721 16.3315 14.0294C16.1723 14.4383 15.9828 14.73 15.6766 15.036C15.3704 15.3421 15.0783 15.5319 14.6695 15.6911C14.3613 15.8114 13.8972 15.9536 13.0436 15.9924C12.1208 16.0349 11.8435 16.0433 9.50545 16.0433C7.16738 16.0433 6.89092 16.0349 5.96832 15.9924ZM5.89583 0.158994C4.96378 0.201452 4.32689 0.349284 3.77068 0.565776C3.19465 0.789346 2.70702 1.08928 2.21974 1.57594C1.73245 2.06259 1.43337 2.55113 1.20987 3.12733C0.99344 3.68404 0.845651 4.32077 0.803205 5.25309C0.760059 6.18688 0.750183 6.48542 0.750183 8.86376C0.750183 11.2421 0.760059 11.5406 0.803205 12.4744C0.845651 13.4068 0.99344 14.0435 1.20987 14.6002C1.43337 15.176 1.73252 15.6651 2.21974 16.1516C2.70695 16.638 3.19465 16.9375 3.77068 17.1617C4.32794 17.3782 4.96378 17.5261 5.89583 17.5685C6.82984 17.611 7.1278 17.6216 9.50545 17.6216C11.8831 17.6216 12.1816 17.6117 13.1151 17.5685C14.0472 17.5261 14.6837 17.3782 15.2402 17.1617C15.8159 16.9375 16.3039 16.6382 16.7912 16.1516C17.2785 15.6649 17.5769 15.176 17.801 14.6002C18.0175 14.0435 18.166 13.4067 18.2077 12.4744C18.2501 11.5399 18.26 11.2421 18.26 8.86376C18.26 6.48542 18.2501 6.18688 18.2077 5.25309C18.1653 4.3207 18.0175 3.68369 17.801 3.12733C17.5769 2.55148 17.2777 2.06336 16.7912 1.57594C16.3047 1.08851 15.8159 0.789346 15.2409 0.565776C14.6837 0.349284 14.0471 0.200751 13.1158 0.158994C12.1823 0.116536 11.8838 0.105957 9.50615 0.105957C7.1285 0.105957 6.82984 0.115836 5.89583 0.158994Z" fill="#737C98"/>
</svg>
