<svg width="112" height="38" viewBox="0 0 112 38" fill="none" xmlns="http://www.w3.org/2000/svg">
<path d="M31.5055 25.7416C32.7466 25.7416 33.7527 24.7355 33.7527 23.4944C33.7527 22.2533 32.7466 21.2472 31.5055 21.2472C30.2644 21.2472 29.2583 22.2533 29.2583 23.4944C29.2583 24.7355 30.2644 25.7416 31.5055 25.7416Z" stroke="#A9AABC" stroke-width="1.5" stroke-linecap="round" stroke-linejoin="round"/>
<path d="M24.7637 20.1235L29.2581 22.3707" stroke="#A9AABC" stroke-width="1.5" stroke-linecap="round" stroke-linejoin="round"/>
<path d="M22.5167 21.2472C23.7578 21.2472 24.7639 20.2411 24.7639 19C24.7639 17.7589 23.7578 16.7528 22.5167 16.7528C21.2756 16.7528 20.2695 17.7589 20.2695 19C20.2695 20.2411 21.2756 21.2472 22.5167 21.2472Z" stroke="#A9AABC" stroke-width="1.5" stroke-linecap="round" stroke-linejoin="round"/>
<path d="M29.2581 15.6292L24.7637 17.8763" stroke="#A9AABC" stroke-width="1.5" stroke-linecap="round" stroke-linejoin="round"/>
<path d="M31.5055 16.7528C32.7466 16.7528 33.7527 15.7467 33.7527 14.5056C33.7527 13.2645 32.7466 12.2584 31.5055 12.2584C30.2644 12.2584 29.2583 13.2645 29.2583 14.5056C29.2583 15.7467 30.2644 16.7528 31.5055 16.7528Z" stroke="#A9AABC" stroke-width="1.5" stroke-linecap="round" stroke-linejoin="round"/>
<path d="M43.1394 23.5752C44.698 23.5752 45.5046 22.7959 46.4138 20.6768L49.4353 13.6357H47.8357L45.4431 19.6992H45.3406L42.8728 13.6357H41.2458L44.5818 21.3057C44.2058 21.9619 43.7341 22.2285 43.0505 22.2285C42.825 22.2285 42.6199 22.208 42.4832 22.1738V23.4863C42.572 23.5273 42.8386 23.5752 43.1394 23.5752ZM51.8757 20.2734L52.074 17.4844H54.5554V23.5H56.032V16.3086H50.7751L50.5154 20.1982C50.4265 21.5039 50.1736 22.249 49.4285 22.249C49.2439 22.249 49.114 22.2217 49.0457 22.2012V23.4932C49.1482 23.5273 49.3533 23.5684 49.6335 23.5684C51.2468 23.5684 51.7322 22.29 51.8757 20.2734ZM59.7371 23.6299C60.6941 23.6299 61.5212 23.1377 61.9382 22.3652H61.9724V23.5H63.449V18.5439C63.449 17.1016 62.3347 16.1719 60.5779 16.1719C58.8074 16.1719 57.7341 17.1221 57.6316 18.3594L57.6248 18.4346H59.0193L59.033 18.373C59.156 17.7988 59.6824 17.3955 60.5369 17.3955C61.4529 17.3955 61.9724 17.874 61.9724 18.667V19.207L60.0105 19.3232C58.3083 19.4258 57.3376 20.1914 57.3376 21.4424V21.4561C57.3376 22.748 58.3015 23.6299 59.7371 23.6299ZM58.8279 21.4219V21.4082C58.8279 20.7998 59.3201 20.4102 60.2087 20.3555L61.9724 20.2461V20.8066C61.9724 21.7432 61.1794 22.4473 60.1404 22.4473C59.3474 22.4473 58.8279 22.0508 58.8279 21.4219ZM65.0076 23.5H74.2429V16.3086H72.7664V22.3174H70.3669V16.3086H68.8835V22.3174H66.4841V16.3086H65.0076V23.5ZM75.8357 23.5H77.2917L80.5935 18.4482H80.655V23.5H82.1248V16.3086H80.6687L77.3669 21.3398H77.2986V16.3086H75.8357V23.5ZM83.7107 23.5H92.946V16.3086H91.4695V22.3174H89.0701V16.3086H87.5867V22.3174H85.1873V16.3086H83.7107V23.5Z" fill="#A9AABC"/>
</svg>
