<svg width="23" height="22" viewBox="0 0 23 22" fill="none" xmlns="http://www.w3.org/2000/svg">
<path d="M11.5 16.2084C14.3764 16.2084 16.7083 13.8766 16.7083 11.0001C16.7083 8.1236 14.3764 5.79175 11.5 5.79175C8.62348 5.79175 6.29163 8.1236 6.29163 11.0001C6.29163 13.8766 8.62348 16.2084 11.5 16.2084Z" fill="url(#paint0_linear_1288_331)"/>
<path d="M16.3948 1.21149L15.1708 4.1667C14.7718 5.1292 13.3281 4.53128 13.7271 3.56878L14.951 0.61357C15.35 -0.34893 16.7937 0.248986 16.3948 1.21149ZM9.26351 18.4271L8.03956 21.3823C7.6406 22.3448 6.19685 21.7469 6.59581 20.7844L7.81976 17.8292C8.21872 16.8667 9.66247 17.4646 9.26351 18.4271V18.4271ZM21.8802 7.54274L18.925 8.7667C17.9625 9.16565 17.3646 7.7219 18.3271 7.32295L21.2823 6.09899C22.2448 5.70003 22.8427 7.14378 21.8802 7.54274V7.54274ZM4.66456 14.674L1.70935 15.8979C0.746846 16.2969 0.148929 14.8532 1.11143 14.4542L4.06664 13.2302C5.02914 12.8313 5.62706 14.275 4.66456 14.674V14.674ZM21.2823 15.899L18.3271 14.675C17.3646 14.2761 17.9625 12.8323 18.925 13.2313L21.8802 14.4552C22.8427 14.8542 22.2448 16.2979 21.2823 15.899ZM4.06664 8.76774L1.11143 7.54378C0.148929 7.14482 0.746846 5.70107 1.70935 6.10003L4.66456 7.32399C5.62706 7.72294 5.02914 9.1667 4.06664 8.76774V8.76774ZM8.03851 0.612528L9.26247 3.56774C9.66143 4.53024 8.21768 5.12815 7.81872 4.16565L6.59476 1.21044C6.19581 0.247945 7.63956 -0.349972 8.03851 0.612528V0.612528ZM15.1698 17.8282L16.3937 20.7834C16.7927 21.7459 15.3489 22.3438 14.95 21.3813L13.726 18.4261C13.3271 17.4636 14.7708 16.8657 15.1698 17.8282V17.8282Z" fill="#FFB300"/>
<defs>
<linearGradient id="paint0_linear_1288_331" x1="11.5" y1="5.79175" x2="11.5" y2="16.0696" gradientUnits="userSpaceOnUse">
<stop stop-color="#FFC227"/>
<stop offset="1" stop-color="#FFB300"/>
</linearGradient>
</defs>
</svg>
