<svg width="17" height="14" viewBox="0 0 17 14" fill="none" xmlns="http://www.w3.org/2000/svg">
<path d="M1.73707 6.19844C1.73707 6.19844 8.85773 3.19934 11.3273 2.14328C12.274 1.72089 15.4844 0.369137 15.4844 0.369137C15.4844 0.369137 16.9662 -0.222206 16.8427 1.21397C16.8015 1.80537 16.4723 3.87516 16.143 6.11396C15.6491 9.28208 15.114 12.7458 15.114 12.7458C15.114 12.7458 15.0317 13.7174 14.332 13.8864C13.6323 14.0553 12.4798 13.295 12.274 13.126C12.1093 12.9993 9.18699 11.0984 8.11684 10.1691C7.82871 9.91569 7.49945 9.40882 8.15797 8.81742C9.63975 7.42345 11.4096 5.69158 12.4798 4.59331C12.9737 4.08638 13.4676 2.90364 11.4096 4.33982C8.48728 6.40966 5.60609 8.35276 5.60609 8.35276C5.60609 8.35276 4.94752 8.77515 3.71274 8.39497C2.4779 8.01485 1.0373 7.50793 1.0373 7.50793C1.0373 7.50793 0.0495256 6.87432 1.73707 6.19844Z" fill="#737C98"/>
</svg>
