<svg width="18" height="15" viewBox="0 0 18 15" fill="none" xmlns="http://www.w3.org/2000/svg">
<path d="M1.07153 6.53254C1.07153 6.53254 8.8033 3.23976 11.4848 2.08029C12.5128 1.61654 15.9987 0.132411 15.9987 0.132411C15.9987 0.132411 17.6077 -0.516838 17.4736 1.05997C17.4289 1.70929 17.0713 3.98175 16.7138 6.43979C16.1775 9.91813 15.5965 13.7211 15.5965 13.7211C15.5965 13.7211 15.5071 14.7878 14.7474 14.9733C13.9876 15.1588 12.7362 14.324 12.5128 14.1385C12.3339 13.9994 9.16082 11.9123 7.99883 10.892C7.68597 10.6138 7.32845 10.0573 8.04349 9.40797C9.65244 7.8775 11.5742 5.97604 12.7362 4.77022C13.2725 4.21366 13.8088 2.9151 11.5742 4.49191C8.40106 6.76444 5.27261 8.89782 5.27261 8.89782C5.27261 8.89782 4.55751 9.36156 3.21676 8.94416C1.87595 8.52682 0.311717 7.97025 0.311717 7.97025C0.311717 7.97025 -0.760834 7.2746 1.07153 6.53254Z" fill="white"/>
</svg>
