<svg width="16" height="18" viewBox="0 0 16 18" fill="none" xmlns="http://www.w3.org/2000/svg">
<path d="M13.2726 4.07008C13.1565 4.01008 13.0434 3.94429 12.9339 3.87298C12.6154 3.66243 12.3234 3.41433 12.0642 3.13404C11.4155 2.39186 11.1733 1.63894 11.084 1.11178H11.0876C11.0131 0.674221 11.0439 0.391113 11.0486 0.391113H8.09422V11.8151C8.09422 11.9684 8.09422 12.12 8.08777 12.2698C8.08777 12.2885 8.08597 12.3057 8.0849 12.3257C8.0849 12.334 8.0849 12.3426 8.08311 12.3512C8.08311 12.3533 8.08311 12.3555 8.08311 12.3576C8.05197 12.7675 7.92057 13.1635 7.70048 13.5107C7.4804 13.8578 7.17836 14.1456 6.82095 14.3487C6.44845 14.5606 6.02714 14.6718 5.59857 14.6712C4.2221 14.6712 3.10651 13.5488 3.10651 12.1627C3.10651 10.7765 4.2221 9.65412 5.59857 9.65412C5.85913 9.65388 6.11809 9.69488 6.36583 9.77561L6.36941 6.76749C5.61734 6.67035 4.85329 6.73012 4.12547 6.94304C3.39765 7.15595 2.72186 7.5174 2.14072 8.00457C1.63151 8.44701 1.20341 8.97491 0.875694 9.56453C0.750984 9.77955 0.280452 10.6436 0.223472 12.0458C0.187636 12.8418 0.426665 13.6664 0.540624 14.0072V14.0143C0.612297 14.215 0.890029 14.8999 1.34264 15.4772C1.70761 15.9403 2.13881 16.3471 2.62236 16.6845V16.6773L2.62953 16.6845C4.05976 17.6564 5.64552 17.5926 5.64552 17.5926C5.92002 17.5815 6.83958 17.5926 7.88386 17.0977C9.04209 16.5491 9.70148 15.7316 9.70148 15.7316C10.1227 15.2432 10.4577 14.6866 10.692 14.0857C10.9593 13.3829 11.0486 12.54 11.0486 12.2032V6.14251C11.0844 6.16401 11.5617 6.47973 11.5617 6.47973C11.5617 6.47973 12.2494 6.92052 13.3224 7.20757C14.0921 7.41183 15.1293 7.45484 15.1293 7.45484V4.52198C14.7659 4.5614 14.028 4.44672 13.2726 4.07008Z" fill="#737C98"/>
</svg>
