<svg width="19" height="16" viewBox="0 0 19 16" fill="none" xmlns="http://www.w3.org/2000/svg">
<path d="M18.1869 2.27704C17.609 2.52597 17.0015 2.69931 16.3793 2.79278C16.6702 2.74287 17.0982 2.21881 17.2686 2.00669C17.5274 1.68673 17.7247 1.32147 17.8503 0.929462C17.8503 0.900348 17.8794 0.858756 17.8503 0.83796C17.8357 0.829951 17.8192 0.825754 17.8025 0.825754C17.7858 0.825754 17.7694 0.829951 17.7547 0.83796C17.0791 1.20414 16.3601 1.48363 15.6147 1.6698C15.5887 1.67774 15.561 1.67845 15.5347 1.67186C15.5083 1.66526 15.4843 1.65161 15.4651 1.63236C15.407 1.56321 15.3446 1.49791 15.2781 1.43688C14.974 1.16423 14.6291 0.94107 14.2558 0.775572C13.752 0.568685 13.2078 0.479087 12.6643 0.513544C12.1369 0.546879 11.622 0.688453 11.1517 0.929462C10.6885 1.18356 10.2814 1.52875 9.9549 1.9443C9.61144 2.37201 9.36347 2.86838 9.22768 3.40002C9.11571 3.90571 9.10301 4.42837 9.19028 4.93891C9.19028 5.02626 9.19028 5.03873 9.11549 5.02626C6.15262 4.58954 3.72166 3.53727 1.73534 1.27883C1.64807 1.17901 1.60236 1.17901 1.53172 1.27883C0.667379 2.59314 1.08708 4.67273 2.16751 5.70004C2.31295 5.8373 2.46255 5.97039 2.62046 6.09517C2.12509 6.05997 1.64182 5.92561 1.19928 5.70004C1.11617 5.64597 1.07046 5.67509 1.06631 5.77491C1.05453 5.9133 1.05453 6.05244 1.06631 6.19083C1.15301 6.85405 1.41415 7.48232 1.82302 8.0114C2.23189 8.54048 2.77381 8.95138 3.39338 9.20208C3.54441 9.26682 3.70179 9.31561 3.86295 9.34765C3.40436 9.43801 2.93402 9.45207 2.47086 9.38924C2.37113 9.36844 2.33373 9.42251 2.37113 9.51817C2.98199 11.1818 4.30759 11.6893 5.27997 11.9721C5.41295 11.9929 5.54592 11.9929 5.69552 12.0262C5.69552 12.0262 5.69552 12.0262 5.67059 12.0511C5.38386 12.5752 4.22448 12.9287 3.69257 13.1117C2.72172 13.4607 1.6866 13.5942 0.659068 13.5027C0.497004 13.4777 0.459605 13.4819 0.41805 13.5027C0.376495 13.5235 0.41805 13.5692 0.46376 13.6108C0.671534 13.7481 0.879309 13.8687 1.09539 13.9851C1.73868 14.3363 2.41877 14.6153 3.12327 14.817C6.77179 15.8235 10.8774 15.0832 13.6159 12.3589C15.7684 10.2211 16.5247 7.27221 16.5247 4.3192C16.5247 4.2069 16.6619 4.14035 16.7408 4.08212C17.2854 3.65743 17.7655 3.15587 18.1661 2.59314C18.2355 2.50925 18.2711 2.40245 18.2659 2.29367C18.2659 2.23129 18.2659 2.24376 18.1869 2.27704Z" fill="#737C98"/>
</svg>
