<svg width="20" height="21" viewBox="0 0 20 21" fill="none" xmlns="http://www.w3.org/2000/svg">
<mask id="mask0_1288_824" style="mask-type:alpha" maskUnits="userSpaceOnUse" x="0" y="0" width="20" height="21">
<circle cx="10" cy="10.8116" r="10" fill="#D9D9D9"/>
</mask>
<g mask="url(#mask0_1288_824)">
<g clip-path="url(#clip0_1288_824)">
<path d="M24.9991 2.34985V3.88804H10.1993V2.34985H24.9991ZM24.9991 5.42623V6.96442H10.1993V5.42623H24.9991ZM24.9991 8.50261V10.0408H10.1993V8.50261H24.9991ZM24.9991 11.579V13.1172H-4.99915V11.579H24.9991ZM24.9991 14.6554V16.1936H-4.99915V14.6554H24.9991ZM24.9991 17.7318V19.2699H-4.99915V17.7318H24.9991Z" fill="#F4F4F5"/>
<path d="M-4.99915 0.811646H24.9991V2.34984H-4.99915V0.811646ZM-4.99915 19.2735H24.9991V20.8116H-4.99915V19.2735ZM-4.99915 16.1971H24.9991V17.7353H-4.99915V16.1971ZM-4.99915 13.1207H24.9991V14.6589H-4.99915V13.1207ZM-4.99915 10.0443H24.9991V11.5825H-4.99915V10.0443ZM-4.99915 6.96793H24.9991V8.50612H-4.99915V6.96793ZM-4.99915 3.89155H24.9991V5.42974H-4.99915V3.89155V3.89155Z" fill="#F90805"/>
<path d="M-4.99915 0.811646H10.1993V11.579H-4.99915V0.811646Z" fill="#0437A0"/>
<path d="M8.93277 1.34435L9.07036 1.77123H9.51841L9.15503 2.0323L9.29262 2.45918L8.92924 2.19459L8.56586 2.45918L8.70698 2.0323L8.3436 1.77123H8.79165L8.92924 1.34435H8.93277ZM-3.73261 5.63788L-3.59502 6.06476H-3.14697L-3.51035 6.32583L-3.37276 6.75271L-3.73614 6.48811L-4.09952 6.75271L-3.9584 6.32583L-4.32178 6.06476H-3.87373L-3.73614 5.63788H-3.73261ZM-2.46607 6.71037L-2.32848 7.13726H-1.88043L-2.24381 7.39833L-2.10622 7.82521L-2.46607 7.56061L-2.82945 7.82521L-2.69186 7.39833L-3.05524 7.13726H-2.60719L-2.4696 6.71037H-2.46607ZM7.66623 6.71037L7.80382 7.13726H8.25187L7.88849 7.39833L8.02608 7.82521L7.6627 7.56061L7.29932 7.82521L7.43691 7.39833L7.07353 7.13726H7.52158L7.65917 6.71037H7.66623ZM5.13315 6.71037L5.27074 7.13726H5.71879L5.35542 7.39833L5.49301 7.82521L5.12963 7.56061L4.76625 7.82521L4.90736 7.39833L4.54398 7.13726H4.99204L5.12963 6.71037H5.13315ZM2.60008 6.71037L2.73767 7.13726H3.18572L2.82234 7.39833L2.95993 7.82521L2.59655 7.56061L2.23317 7.82521L2.37429 7.39833L2.01091 7.13726H2.45896L2.59655 6.71037H2.60008ZM0.0670039 6.7139L0.204594 7.14079H0.652645L0.289265 7.40185L0.426856 7.82874L0.0634762 7.56414L-0.299904 7.82874L-0.162313 7.40185L-0.525693 7.14079H-0.0705863L0.0670039 6.7139ZM-1.19953 5.6414L-1.06194 6.06829H-0.613892L-0.977272 6.32936L-0.839682 6.75624L-1.19953 6.49164L-1.56291 6.75624L-1.4218 6.32936L-1.78517 6.06829H-1.33712L-1.19953 5.6414V5.6414ZM6.39969 5.6414L6.53728 6.06829H6.98533L6.62195 6.32936L6.75954 6.75624L6.39969 6.49164L6.03631 6.75624L6.17743 6.32936L5.81405 6.06829H6.2621L6.39969 5.6414V5.6414ZM8.93277 5.6414L9.07036 6.06829H9.51841L9.15503 6.32936L9.29262 6.75624L8.92924 6.49164L8.56586 6.75624L8.70698 6.32936L8.3436 6.06829H8.79165L8.92924 5.6414H8.93277ZM8.93277 7.78993L9.07036 8.21681H9.51841L9.15503 8.47788L9.29262 8.90477L8.92924 8.64017L8.56586 8.90477L8.70698 8.47788L8.3436 8.21681H8.79165L8.92924 7.79346L8.93277 7.78993ZM6.39969 7.78993L6.53728 8.21681H6.98533L6.62195 8.47788L6.75954 8.90477L6.39969 8.64017L6.03631 8.90477L6.17743 8.47788L5.81405 8.21681H6.2621L6.39969 7.79346V7.78993ZM-1.19953 7.78993L-1.06194 8.21681H-0.613892L-0.977272 8.47788L-0.839682 8.90477L-1.19953 8.64017L-1.56291 8.90477L-1.4218 8.47788L-1.78517 8.21681H-1.33712L-1.19953 7.79346V7.78993ZM-2.46607 8.86243L-2.32848 9.28931H-1.88043L-2.24381 9.55038L-2.10622 9.97727L-2.46607 9.71267L-2.82945 9.97727L-2.69186 9.55038L-3.05524 9.28931H-2.60719L-2.4696 8.86243H-2.46607ZM7.66623 8.86243L7.80382 9.28931H8.25187L7.88849 9.55038L8.02608 9.97727L7.6627 9.71267L7.29932 9.97727L7.43691 9.55038L7.07353 9.28931H7.52158L7.65917 8.86243H7.66623ZM5.13315 8.86243L5.27074 9.28931H5.71879L5.35542 9.55038L5.49301 9.97727L5.12963 9.71267L4.76625 9.97727L4.90736 9.55038L4.54398 9.28931H4.99204L5.12963 8.86243H5.13315ZM2.60008 8.86243L2.73767 9.28931H3.18572L2.82234 9.55038L2.95993 9.97727L2.59655 9.71267L2.23317 9.97727L2.37429 9.55038L2.01091 9.28931H2.45896L2.59655 8.86243H2.60008ZM0.0670039 8.8589L0.204594 9.28579H0.652645L0.289265 9.54685L0.426856 9.97374L0.0634762 9.70914L-0.299904 9.97374L-0.162313 9.54685L-0.525693 9.28579H-0.0705863L0.0670039 8.8589ZM-3.73261 7.7864L-3.59502 8.21329H-3.14697L-3.51035 8.47435L-3.37276 8.90124L-3.73614 8.63664L-4.09952 8.90124L-3.9584 8.47435L-4.32178 8.21329H-3.87373L-3.73614 7.78993L-3.73261 7.7864ZM-3.73261 9.9314L-3.59502 10.3583H-3.14697L-3.51035 10.6194L-3.37276 11.0462L-3.73614 10.7816L-4.09952 11.0462L-3.9584 10.6194L-4.32178 10.3548H-3.87373L-3.73614 9.92787L-3.73261 9.9314ZM-1.19953 9.9314L-1.06194 10.3583H-0.613892L-0.977272 10.6194L-0.839682 11.0462L-1.19953 10.7816L-1.56291 11.0462L-1.4218 10.6194L-1.78517 10.3548H-1.33712L-1.19953 9.92787V9.9314ZM6.39969 9.9314L6.53728 10.3583H6.98533L6.62195 10.6194L6.75954 11.0462L6.39969 10.7816L6.03631 11.0462L6.17743 10.6194L5.81405 10.3548H6.2621L6.39969 9.92787V9.9314ZM8.93277 9.9314L9.07036 10.3583H9.51841L9.15503 10.6194L9.29262 11.0462L8.92924 10.7816L8.56586 11.0462L8.70698 10.6194L8.3436 10.3548H8.79165L8.92924 9.92787L8.93277 9.9314ZM-2.46607 4.56538L-2.32848 4.99226H-1.88043L-2.24381 5.25333L-2.10622 5.68021L-2.46607 5.41561L-2.82945 5.68021L-2.69186 5.25333L-3.05524 4.99226H-2.60719L-2.4696 4.56538H-2.46607ZM-2.46607 2.42038L-2.32848 2.84726H-1.88043L-2.24381 3.10833L-2.10622 3.53168L-2.46607 3.26709L-2.82945 3.53168L-2.69186 3.10833L-3.05524 2.84373H-2.60719L-2.4696 2.42038H-2.46607ZM7.66623 2.42038L7.80382 2.84726H8.25187L7.88849 3.10833L8.02608 3.53168L7.6627 3.26709L7.29932 3.53168L7.43691 3.10833L7.07353 2.84373H7.52158L7.65917 2.42038H7.66623ZM5.13315 2.42038L5.27074 2.84726H5.71879L5.35542 3.10833L5.49301 3.53168L5.12963 3.26709L4.76625 3.53168L4.90736 3.10833L4.54398 2.84373H4.99204L5.12963 2.42038H5.13315ZM2.60008 2.42038L2.73767 2.84726H3.18572L2.82234 3.10833L2.95993 3.53168L2.59655 3.26709L2.23317 3.53168L2.37429 3.10833L2.01091 2.84373H2.45896L2.59655 2.42038H2.60008ZM0.0670039 2.41685L0.204594 2.84373H0.652645L0.289265 3.1048L0.426856 3.52816L0.0670039 3.26709L-0.296376 3.53168L-0.158785 3.10833L-0.522165 2.84373H-0.0705863L0.0670039 2.42038V2.41685ZM-3.73261 3.48935L-3.59502 3.91623H-3.14697L-3.51035 4.1773L-3.37276 4.60418L-3.73614 4.33959L-4.09952 4.60418L-3.9584 4.1773L-4.32178 3.91623H-3.87373L-3.73614 3.48935H-3.73261ZM7.66976 4.56185L7.80735 4.98873H8.2554L7.89202 5.2498L8.02961 5.67668L7.66623 5.41209L7.30285 5.67668L7.44044 5.2498L7.07706 4.98873H7.52511L7.6627 4.56185H7.66976ZM5.13668 4.56185L5.27427 4.98873H5.72232L5.35894 5.2498L5.49653 5.67668L5.13315 5.41209L4.76977 5.67668L4.91089 5.2498L4.54751 4.98873H4.99556L5.13315 4.56185H5.13668ZM2.60361 4.56185L2.7412 4.98873H3.18925L2.82587 5.2498L2.96346 5.67668L2.60008 5.41209L2.2367 5.67668L2.37782 5.2498L2.01444 4.98873H2.46249L2.60008 4.56185H2.60361ZM0.0670039 4.56538L0.204594 4.99226H0.652645L0.289265 5.25333L0.426856 5.68021L0.0634762 5.41561L-0.299904 5.68021L-0.162313 5.25333L-0.525693 4.99226H-0.0705863L0.0670039 4.56538ZM-1.19953 3.49288L-1.06194 3.91976H-0.613892L-0.977272 4.18083L-0.839682 4.60771L-1.19953 4.34311L-1.56291 4.60771L-1.4218 4.18083L-1.78517 3.91976H-1.33712L-1.19953 3.49288V3.49288ZM-1.19953 1.34435L-1.06194 1.77123H-0.613892L-0.977272 2.0323L-0.839682 2.45918L-1.19953 2.19459L-1.56291 2.45918L-1.4218 2.0323L-1.78517 1.77123H-1.33712L-1.19953 1.34435V1.34435ZM-3.73261 1.34435L-3.59502 1.77123H-3.14697L-3.51035 2.0323L-3.37276 2.45918L-3.73614 2.19459L-4.09952 2.45918L-3.9584 2.0323L-4.32178 1.77123H-3.87373L-3.73614 1.34435H-3.73261ZM1.33354 9.9314L1.47113 10.3583H1.91918L1.5558 10.6194L1.69339 11.0462L1.33001 10.7816L0.966634 11.0462L1.10422 10.6194L0.740844 10.3548H1.1889L1.32649 9.92787L1.33354 9.9314ZM1.33354 7.7864L1.47113 8.21329H1.91918L1.5558 8.47435L1.69339 8.90124L1.33001 8.63664L0.966634 8.90124L1.10422 8.47435L0.740844 8.21329H1.1889L1.32649 7.78993L1.33354 7.7864ZM1.33354 5.63788L1.47113 6.06476H1.91918L1.5558 6.32583L1.69339 6.75271L1.33001 6.48811L0.966634 6.75271L1.10422 6.32583L0.740844 6.06476H1.1889L1.32649 5.63788H1.33354ZM1.33354 3.48935L1.47113 3.91623H1.91918L1.5558 4.1773L1.69339 4.60418L1.33001 4.33959L0.966634 4.60418L1.10422 4.1773L0.740844 3.91623H1.1889L1.32649 3.48935H1.33354ZM1.33354 1.34435L1.47113 1.77123H1.91918L1.5558 2.0323L1.69339 2.45918L1.33001 2.19459L0.966634 2.45918L1.10422 2.0323L0.740844 1.77123H1.1889L1.32649 1.34435H1.33354ZM3.86662 9.9314L4.00421 10.3583H4.45226L4.08888 10.6194L4.23 11.0462L3.86662 10.7816L3.50676 11.0462L3.64435 10.6194L3.28097 10.3548H3.72903L3.86662 9.92787V9.9314ZM3.86662 7.7864L4.00421 8.21329H4.45226L4.08888 8.47435L4.23 8.90124L3.86662 8.63664L3.50676 8.90124L3.64435 8.47435L3.28097 8.21329H3.72903L3.86662 7.78993V7.7864ZM3.86662 5.63788L4.00421 6.06476H4.45226L4.08888 6.32583L4.23 6.75271L3.86662 6.48811L3.50676 6.75271L3.64435 6.32583L3.28097 6.06476H3.72903L3.86662 5.63788V5.63788ZM3.86662 3.48935L4.00421 3.91623H4.45226L4.08888 4.1773L4.23 4.60418L3.86662 4.33959L3.50676 4.60418L3.64435 4.1773L3.28097 3.91623H3.72903L3.86662 3.48935V3.48935ZM3.86662 1.34082L4.00421 1.7677H4.45226L4.08888 2.02877L4.23 2.45566L3.86662 2.19106L3.50676 2.45566L3.64435 2.02877L3.28097 1.7677H3.72903L3.86662 1.34082V1.34082ZM6.39969 3.48935L6.53728 3.91623H6.98533L6.62195 4.1773L6.75954 4.60418L6.39969 4.33959L6.03631 4.60418L6.17743 4.1773L5.81405 3.91623H6.2621L6.39969 3.48935V3.48935ZM6.39969 1.34082L6.53728 1.7677H6.98533L6.62195 2.02877L6.75954 2.45566L6.39969 2.19106L6.03631 2.45566L6.17743 2.02877L5.81405 1.7677H6.2621L6.39969 1.34082V1.34082ZM8.93277 3.48935L9.07036 3.91623H9.51841L9.15503 4.1773L9.29262 4.60418L8.92924 4.33959L8.56586 4.60418L8.70698 4.1773L8.3436 3.91623H8.79165L8.92924 3.48935H8.93277Z" fill="#F4F4F5"/>
</g>
</g>
<defs>
<clipPath id="clip0_1288_824">
<rect width="20" height="20" fill="white" transform="translate(0 0.811646)"/>
</clipPath>
</defs>
</svg>
