<svg width="21" height="15" viewBox="0 0 21 15" fill="none" xmlns="http://www.w3.org/2000/svg">
<path d="M20.1786 2.82567C19.9492 1.96559 19.2726 1.289 18.4125 1.05582C16.8606 0.63916 10.6222 0.63916 10.6222 0.63916C10.6222 0.63916 4.38755 0.63916 2.82795 1.05582C1.96787 1.28517 1.29128 1.96177 1.06192 2.82567C0.645264 4.38527 0.645264 7.63827 0.645264 7.63827C0.645264 7.63827 0.645264 10.8951 1.06192 12.4509C1.29128 13.311 1.96787 13.9876 2.82795 14.2207C4.38755 14.6374 10.6222 14.6374 10.6222 14.6374C10.6222 14.6374 16.8606 14.6374 18.4164 14.2207C19.2726 13.9914 19.9492 13.3148 20.1824 12.4509C20.599 10.8913 20.599 7.63827 20.599 7.63827C20.599 7.63827 20.599 4.38145 20.1824 2.82567H20.1786ZM8.62678 10.639V4.63756L13.8102 7.63827L8.62678 10.639Z" fill="#737C98"/>
</svg>
